nColumns=19
nRows=112
DataType=double
version=3
OpenSimVersion=4.1
endheader
time	ground_force_calcn_r_vx	ground_force_calcn_r_vy	ground_force_calcn_r_vz	ground_force_calcn_r_px	ground_force_calcn_r_py	ground_force_calcn_r_pz	ground_force_calcn_r_mx	ground_force_calcn_r_my	ground_force_calcn_r_mz	ground_force_calcn_l_vx	ground_force_calcn_l_vy	ground_force_calcn_l_vz	ground_force_calcn_l_px	ground_force_calcn_l_py	ground_force_calcn_l_pz	ground_force_calcn_l_mx	ground_force_calcn_l_my	ground_force_calcn_l_mz
0	-34.0392	173.223	2.94075	0.130167	0	-0.159193	-0.0942559	0.47966	0.00814306	0	0	0	0	0	0	0	0	0
0.01	-40.9932	212.66	0.678594	0.133303	0	-0.157666	-0.0940975	0.488148	0.00155767	0	0	0	0	0	0	0	0	0
0.02	-49.0473	256.088	-2.03056	0.136922	0	-0.156243	-0.0955492	0.498886	-0.00395575	0	0	0	0	0	0	0	0	0
0.03	-57.9446	302.301	-5.19373	0.140497	0	-0.155064	-0.0972688	0.507458	-0.00871846	0	0	0	0	0	0	0	0	0
0.04	-67.2695	349.844	-8.80924	0.144039	0	-0.154035	-0.0979534	0.509419	-0.0128274	0	0	0	0	0	0	0	0	0
0.05	-76.5216	397.041	-12.8636	0.147545	0	-0.153086	-0.0963554	0.499951	-0.0161977	0	0	0	0	0	0	0	0	0
0.06	-85.1747	442.105	-17.318	0.151002	0	-0.152167	-0.0914629	0.474745	-0.0185966	0	0	0	0	0	0	0	0	0
0.07	-92.7178	483.356	-22.093	0.154398	0	-0.151243	-0.0828196	0.431754	-0.0197344	0	0	0	0	0	0	0	0	0
0.08	-98.7322	519.423	-27.0593	0.157731	0	-0.150294	-0.0706519	0.371695	-0.0193634	0	0	0	0	0	0	0	0	0
0.09	-102.96	549.411	-32.0492	0.161017	0	-0.149309	-0.0557639	0.297565	-0.0173581	0	0	0	0	0	0	0	0	0
0.1	-105.317	572.944	-36.8719	0.164287	0	-0.148285	-0.0393119	0.213865	-0.0137633	0	0	0	0	0	0	0	0	0
0.11	-105.858	590.077	-41.3218	0.167577	0	-0.147228	-0.0226116	0.126042	-0.00882648	0	0	0	0	0	0	0	0	0
0.12	-104.734	601.151	-45.1986	0.170929	0	-0.146144	-0.0068118	0.0390982	-0.00293967	0	0	0	0	0	0	0	0	0
0.13	-102.159	606.676	-48.3406	0.174378	0	-0.145044	0.00743882	-0.0441759	0.00351998	0	0	0	0	0	0	0	0	0
0.14	-98.3822	607.253	-50.6538	0.17796	0	-0.143929	0.0200853	-0.123974	0.0103413	0	0	0	0	0	0	0	0	0
0.15	-93.6745	603.532	-52.1189	0.181705	0	-0.1428	0.0314797	-0.20282	0.0175148	0	0	0	0	0	0	0	0	0
0.16	-88.303	596.183	-52.7859	0.185642	0	-0.14165	0.0421352	-0.284478	0.0251876	0	0	0	0	0	0	0	0	0
0.17	-82.5201	585.898	-52.7614	0.189792	0	-0.14047	0.0525214	-0.372906	0.033581	0	0	0	0	0	0	0	0	0
0.18	-76.5521	573.384	-52.1869	0.194167	0	-0.13925	0.0629004	-0.47113	0.0428803	0	0	0	0	0	0	0	0	0
0.19	-70.5905	559.353	-51.2142	0.198774	0	-0.137982	0.0733085	-0.580891	0.0531862	0	0	0	0	0	0	0	0	0
0.2	-64.7845	544.516	-49.9853	0.203602	0	-0.136664	0.083631	-0.702923	0.0645266	0	0	0	0	0	0	0	0	0
0.21	-59.2389	529.548	-48.6196	0.208621	0	-0.1353	0.0936765	-0.837393	0.0768839	0	0	0	0	0	0	0	0	0
0.22	-54.0171	515.059	-47.211	0.213781	0	-0.133904	0.10323	-0.984314	0.0902234	0	0	0	0	0	0	0	0	0
0.23	-49.1452	501.562	-45.8304	0.219015	0	-0.132496	0.11208	-1.14385	0.10452	0	0	0	0	0	0	0	0	0
0.24	-44.6179	489.451	-44.5354	0.224236	0	-0.131101	0.119982	-1.31619	0.119761	0	0	0	0	0	0	0	0	0
0.25	-40.4047	478.993	-43.3792	0.229358	0	-0.129741	0.126603	-1.50086	0.135923	0	0	0	0	0	0	0	0	0
0.26	-36.4616	470.333	-42.4137	0.234293	0	-0.128441	0.131484	-1.69607	0.152948	0	0	0	0	0	0	0	0	0
0.27	-32.7423	463.513	-41.6878	0.238966	0	-0.127217	0.134107	-1.89847	0.170746	0	0	0	0	0	0	0	0	0
0.28	-29.2053	458.484	-41.2432	0.243327	0	-0.126084	0.133975	-2.10323	0.189197	0	0	0	0	0	0	0	0	0
0.29	-25.8163	455.144	-41.1108	0.247344	0	-0.125051	0.130717	-2.30455	0.208159	0	0	0	0	0	0	0	0	0
0.3	-22.5476	453.355	-41.3094	0.251013	0	-0.124125	0.124153	-2.4963	0.227461	0	0	0	0	0	0	0	0	0
0.31	-19.376	452.97	-41.8447	0.254345	0	-0.123313	0.114315	-2.67245	0.246877	0	0	0	0	0	0	0	0	0
0.32	-16.2795	453.838	-42.7098	0.25737	0	-0.122619	0.101431	-2.8277	0.266109	0	0	0	0	0	0	0	0	0
0.33	-13.2326	455.819	-43.8861	0.260126	0	-0.122043	0.0858678	-2.95787	0.284782	0	0	0	0	0	0	0	0	0
0.34	-10.2035	458.783	-45.3443	0.262654	0	-0.12159	0.0680539	-3.05992	0.302431	0	0	0	0	0	0	0	0	0
0.35	-7.15309	462.619	-47.0458	0.264997	0	-0.121259	0.0484301	-3.13217	0.318524	0	0	0	0	0	0	0	0	0
0.36	-4.03663	467.241	-48.9431	0.267196	0	-0.121054	0.0274246	-3.1744	0.332516	0	0	0	0	0	0	0	0	0
0.37	-0.807246	472.588	-50.982	0.269286	0	-0.120974	0.00544495	-3.18765	0.343879	0	0	0	0	0	0	0	0	0
0.38	2.58065	478.614	-53.1027	0.271295	0	-0.121022	-0.0171138	-3.17397	0.352155	0	0	0	0	0	0	0	0	0
0.39	6.16856	485.284	-55.2422	0.273247	0	-0.121195	-0.0398671	-3.13637	0.357028	0	0	0	0	0	0	0	0	0
0.4	9.99255	492.554	-57.3369	0.275162	0	-0.121489	-0.062454	-3.07849	0.358359	0	0	0	0	0	0	0	0	0
0.41	14.0833	500.354	-59.3253	0.277051	0	-0.1219	-0.0845583	-3.0042	0.356199	0	0	0	0	0	0	0	0	0
0.42	18.4668	508.576	-61.1507	0.278926	0	-0.122416	-0.105928	-2.91725	0.350768	0	0	0	0	0	0	0	0	0
0.43	23.1649	517.065	-62.7629	0.280794	0	-0.123029	-0.126387	-2.82108	0.342431	0	0	0	0	0	0	0	0	0
0.44	28.1944	525.618	-64.1188	0.282656	0	-0.123726	-0.14583	-2.71866	0.331642	0	0	0	0	0	0	0	0	0
0.45	33.5631	533.986	-65.1808	0.284514	0	-0.124491	-0.164203	-2.61245	0.318888	0	0	0	0	0	0	0	0	0
0.46	39.2635	541.876	-65.9162	0.286366	0	-0.125309	-0.181467	-2.50443	0.30465	0	0	0	0	0	0	0	0	0
0.47	45.267	548.958	-66.297	0.288209	0	-0.126164	-0.197577	-2.39603	0.289366	0	0	0	0	0	0	0	0	0
0.48	51.5216	554.87	-66.2992	0.29004	0	-0.127041	-0.212469	-2.28822	0.27341	0	0	0	0	0	0	0	0	0
0.49	57.9494	559.229	-65.9029	0.291856	0	-0.127923	-0.226064	-2.18158	0.257091	0	0	0	0	0	0	0	0	0
0.5	64.4457	561.637	-65.0937	0.293653	0	-0.128797	-0.238258	-2.07639	0.240654	0	0	0	0	0	0	0	0	0
0.51	70.8788	561.692	-63.8631	0.29543	0	-0.129648	-0.248902	-1.97247	0.224265	0	0	0	0	0	0	0	0	0
0.52	77.0912	558.997	-62.2111	0.297184	0	-0.130465	-0.257768	-1.8691	0.208014	0	0	0	0	0	0	0	0	0
0.53	82.9038	553.172	-60.1454	0.298921	0	-0.131242	-0.264543	-1.76516	0.191922	0	0	0	0	0	0	0	0	0
0.54	88.1231	543.88	-57.68	0.300642	0	-0.131969	-0.268877	-1.65946	0.17599	-3.62629	22.6543	-2.09606	0.759048	0	-0.330225	-0.0709703	0.443369	-0.0410221
0.55	92.5485	530.836	-54.8328	0.302355	0	-0.132646	-0.270473	-1.55137	0.160249	-7.24778	43.8358	-1.34219	0.793988	0	-0.348483	-0.0851517	0.515012	-0.0157689
0.56	95.9804	513.831	-51.625	0.304066	0	-0.133269	-0.269188	-1.4411	0.144788	-11.9707	70.5897	-0.295715	0.811185	0	-0.356654	-0.0880399	0.519161	-0.00217487
0.57	98.2293	492.755	-48.082	0.305784	0	-0.133842	-0.265051	-1.3296	0.129739	-17.9083	103.276	1.08907	0.821344	0	-0.361074	-0.0863315	0.497865	0.00525014
0.58	99.1261	467.613	-44.2362	0.307516	0	-0.134368	-0.258238	-1.2182	0.115242	-25.1306	141.959	2.8518	0.828331	0	-0.363858	-0.0819941	0.463173	0.00930463
0.59	98.5331	438.556	-40.1317	0.309277	0	-0.134852	-0.248968	-1.10812	0.101403	-33.6439	186.288	5.02116	0.833678	0	-0.365804	-0.0759865	0.42074	0.0113406
0.6	96.3582	405.899	-35.8292	0.311081	0	-0.135298	-0.237405	-1.00004	0.0882749	-43.3819	235.409	7.6103	0.838121	0	-0.367279	-0.0690877	0.374901	0.0121198
0.61	92.5731	370.143	-31.4078	0.31295	0	-0.135713	-0.223596	-0.894025	0.0758608	-54.1473	288.034	10.6103	0.842051	0	-0.368478	-0.0620284	0.329958	0.0121546
0.62	87.2297	331.986	-26.9657	0.314908	0	-0.1361	-0.207491	-0.789686	0.0641424	-65.5521	342.57	13.9885	0.845675	0	-0.369511	-0.0554284	0.289665	0.0118282
0.63	80.4714	292.308	-22.6151	0.316985	0	-0.136459	-0.189008	-0.686561	0.0531174	-77.0783	397.192	17.6905	0.849097	0	-0.370443	-0.0498894	0.257085	0.0114503
0.64	72.5383	252.128	-18.473	0.319224	0	-0.136793	-0.16813	-0.584384	0.042817	-88.1448	449.891	21.6446	0.852364	0	-0.371322	-0.0461247	0.23542	0.0113263
0.65	63.7659	212.53	-14.6461	0.321683	0	-0.137098	-0.145099	-0.483611	0.0333272	-98.1381	498.613	25.7629	0.855492	0	-0.372184	-0.0448475	0.227858	0.0117732
0.66	54.5567	174.578	-11.2171	0.324457	0	-0.137369	-0.120562	-0.385789	0.024788	-106.481	541.493	29.9432	0.858482	0	-0.373057	-0.0465057	0.236498	0.0130777
0.67	45.3336	139.228	-8.23583	0.327697	0	-0.137599	-0.0954933	-0.293277	0.0173484	-112.726	577.109	34.0667	0.861333	0	-0.373963	-0.0510537	0.261373	0.0154288
0.68	36.4902	107.246	-5.71684	0.331675	0	-0.137772	-0.0710301	-0.20876	0.0111281	-116.615	604.678	37.9937	0.864063	0	-0.374916	-0.0578849	0.300147	0.0188591
0.69	28.348	79.1559	-3.64468	0.336909	0	-0.137862	-0.0482137	-0.134627	0.00619881	-118.091	624.11	41.5686	0.866694	0	-0.375919	-0.0661052	0.349365	0.0232693
0.7	21.1287	55.2173	-1.98687	0.344475	0	-0.137804	-0.0279835	-0.0731315	0.00263148	-117.269	635.894	44.6345	0.869259	0	-0.376971	-0.0747565	0.405371	0.0284537
0.71	14.9431	35.4417	-0.703882	0.357003	0	-0.137461	-0.0115902	-0.0274894	0.000545948	-114.387	640.864	47.0547	0.871787	0	-0.378065	-0.0830683	0.465397	0.0341713
0.72	0	0	0	0	0	0	0	0	0	-109.766	639.995	48.7359	0.874311	0	-0.379194	-0.0906511	0.528542	0.0402487
0.73	0	0	0	0	0	0	0	0	0	-103.767	634.274	49.6456	0.876861	0	-0.380351	-0.0975168	0.59607	0.0466552
0.74	0	0	0	0	0	0	0	0	0	-96.7609	624.636	49.8178	0.879466	0	-0.381539	-0.103892	0.670669	0.0534891
0.75	0	0	0	0	0	0	0	0	0	-89.1064	611.942	49.3443	0.882154	0	-0.382756	-0.109971	0.755232	0.0608985
0.76	0	0	0	0	0	0	0	0	0	-81.1298	596.986	48.3553	0.884955	0	-0.384004	-0.115762	0.851821	0.0689968
0.77	0	0	0	0	0	0	0	0	0	-73.1125	580.5	46.9964	0.887894	0	-0.385288	-0.121032	0.960973	0.0777989
0.78	0	0	0	0	0	0	0	0	0	-65.2852	563.164	45.4068	0.890994	0	-0.386606	-0.125393	1.08166	0.0872123
0.79	0	0	0	0	0	0	0	0	0	-57.8289	545.605	43.7052	0.894272	0	-0.387956	-0.12844	1.2118	0.0970704
0.8	0	0	0	0	0	0	0	0	0	-50.8782	528.389	41.9813	0.897739	0	-0.389326	-0.129896	1.34902	0.107182
0.81	0	0	0	0	0	0	0	0	0	-44.5224	512.021	40.296	0.901393	0	-0.390699	-0.129681	1.49137	0.117371
0.82	0	0	0	0	0	0	0	0	0	-38.8073	496.931	38.69	0.905221	0	-0.392059	-0.127892	1.63768	0.127506
0.83	0	0	0	0	0	0	0	0	0	-33.7385	483.468	37.1931	0.909192	0	-0.393379	-0.124733	1.7874	0.137505
0.84	0	0	0	0	0	0	0	0	0	-29.2836	471.882	35.8304	0.91326	0	-0.394639	-0.120399	1.94013	0.147316
0.85	0	0	0	0	0	0	0	0	0	-25.3773	462.318	34.6262	0.917368	0	-0.395821	-0.114989	2.09485	0.156898
0.86	0	0	0	0	0	0	0	0	0	-21.9298	454.817	33.6041	0.92145	0	-0.396912	-0.108463	2.24949	0.166203
0.87	0	0	0	0	0	0	0	0	0	-18.8389	449.333	32.7851	0.925441	0	-0.397901	-0.100657	2.40081	0.175172
0.88	0	0	0	0	0	0	0	0	0	-16.0022	445.759	32.1841	0.929284	0	-0.398784	-0.0913505	2.54467	0.183727
0.89	0	0	0	0	0	0	0	0	0	-13.3252	443.947	31.8085	0.932938	0	-0.399561	-0.0803392	2.6766	0.191777
0.9	0	0	0	0	0	0	0	0	0	-10.726	443.731	31.6572	0.936376	0	-0.40023	-0.0674977	2.79234	0.199215
0.91	0	0	0	0	0	0	0	0	0	-8.13672	444.936	31.721	0.939589	0	-0.400793	-0.0528155	2.88808	0.205901
0.92	0	0	0	0	0	0	0	0	0	-5.50178	447.395	31.9829	0.942585	0	-0.401252	-0.0364095	2.96075	0.211655
0.93	0	0	0	0	0	0	0	0	0	-2.77499	450.954	32.4203	0.945381	0	-0.401606	-0.0185107	3.00812	0.216261
0.94	0	0	0	0	0	0	0	0	0	0.0830647	455.483	33.0076	0.948004	0	-0.401855	0.000552335	3.02872	0.219483
0.95	0	0	0	0	0	0	0	0	0	3.10577	460.873	33.7186	0.950482	0	-0.401999	0.0203636	3.0218	0.221082
0.96	0	0	0	0	0	0	0	0	0	6.32009	467.038	34.5275	0.952848	0	-0.402037	0.0404239	2.98722	0.220842
0.97	0	0	0	0	0	0	0	0	0	9.74575	473.907	35.4092	0.955132	0	-0.401971	0.0601608	2.92544	0.218582
0.98	0	0	0	0	0	0	0	0	0	13.3951	481.42	36.3381	0.957368	0	-0.401804	0.0789531	2.83756	0.214182
0.99	0	0	0	0	0	0	0	0	0	17.2743	489.514	37.2874	0.959583	0	-0.401539	0.0961689	2.72521	0.207585
1	0	0	0	0	0	0	0	0	0	21.3842	498.124	38.2284	0.961804	0	-0.401179	0.11121	2.59053	0.198809
1.01	0	0	0	0	0	0	0	0	0	25.7219	507.164	39.1295	0.964049	0	-0.400733	0.123558	2.43622	0.187963
1.02	0	0	0	0	0	0	0	0	0	30.2824	516.52	39.9573	0.966333	0	-0.40021	0.132813	2.26537	0.175246
1.03	0	0	0	0	0	0	0	0	0	35.0597	526.043	40.6785	0.968662	0	-0.39962	0.138706	2.08118	0.160936
1.04	0	0	0	0	0	0	0	0	0	40.0471	535.536	41.2639	0.971035	0	-0.398978	0.141093	1.88678	0.14538
1.05	0	0	0	0	0	0	0	0	0	45.2337	544.76	41.6906	0.973445	0	-0.398297	0.139915	1.68502	0.128955
1.06	0	0	0	0	0	0	0	0	0	50.6021	553.436	41.9422	0.975879	0	-0.397592	0.135176	1.47842	0.112042
1.07	0	0	0	0	0	0	0	0	0	56.1241	561.249	42.0071	0.978323	0	-0.39688	0.126929	1.26931	0.0950023
1.08	0	0	0	0	0	0	0	0	0	61.7558	567.859	41.8736	0.980761	0	-0.396168	0.115292	1.06014	0.078174
1.09	0	0	0	0	0	0	0	0	0	67.4338	572.908	41.5263	0.983179	0	-0.395469	0.100513	0.853945	0.0618968
1.1	0	0	0	0	0	0	0	0	0	73.074	576.023	40.9442	0.985563	0	-0.394786	0.083059	0.654732	0.0465389
1.11	0	0	0	0	0	0	0	0	0	78.5707	576.818	40.1002	0.987905	0	-0.394123	0.0637049	0.467683	0.0325131
